{
  "accessors": [
    {
      "bufferView": 2,
      "componentType": 5126,
      "count": 4450,
      "max": [
        9.8406209945678711,
        9.8683080673217773,
        107.74263763427734
      ],
      "min": [
        -361.25485229492188,
        -9.8076896667480469,
        -51.706184387207031
      ],
      "type": "VEC3"
    },
    {
      "bufferView": 2,
      "byteOffset": 53400,
      "componentType": 5126,
      "count": 4450,
      "max": [
        1,
        1,
        1
      ],
      "min": [
        -1,
        -1,
        -1
      ],
      "type": "VEC3"
    },
    {
      "bufferView": 1,
      "componentType": 5126,
      "count": 4450,
      "max": [
        0.11719536036252975,
        0.98348498344421387
      ],
      "min": [
        0.076188653707504272,
        0.65257704257965088
      ],
      "type": "VEC2"
    },
    {
      "bufferView": 0,
      "componentType": 5125,
      "count": 8184,
      "max": [
        4449
      ],
      "min": [
        0
      ],
      "type": "SCALAR"
    },
    {
      "bufferView": 2,
      "byteOffset": 106800,
      "componentType": 5126,
      "count": 3473,
      "max": [
        -9.822296142578125,
        9.8682861328125,
        107.74264526367188
      ],
      "min": [
        -343.36505126953125,
        -9.807713508605957,
        76.156906127929688
      ],
      "type": "VEC3"
    },
    {
      "bufferView": 2,
      "byteOffset": 148476,
      "componentType": 5126,
      "count": 3473,
      "max": [
        1,
        1,
        1
      ],
      "min": [
        -1,
        -1,
        -1
      ],
      "type": "VEC3"
    },
    {
      "bufferView": 1,
      "byteOffset": 35600,
      "componentType": 5126,
      "count": 3473,
      "max": [
        0.89887678623199463,
        0.98037606477737427
      ],
      "min": [
        0.076712682843208313,
        0.64739382266998291
      ],
      "type": "VEC2"
    },
    {
      "bufferView": 0,
      "byteOffset": 32736,
      "componentType": 5125,
      "count": 4368,
      "max": [
        3472
      ],
      "min": [
        0
      ],
      "type": "SCALAR"
    },
    {
      "bufferView": 2,
      "byteOffset": 190152,
      "componentType": 5126,
      "count": 120,
      "max": [
        -9.8222503662109375,
        -9.8165979385375977,
        107.74263763427734
      ],
      "min": [
        -341.59194946289062,
        -11.785103797912598,
        76.156913757324219
      ],
      "type": "VEC3"
    },
    {
      "bufferView": 2,
      "byteOffset": 191592,
      "componentType": 5126,
      "count": 120,
      "max": [
        1,
        1,
        1
      ],
      "min": [
        -1,
        -1,
        -1
      ],
      "type": "VEC3"
    },
    {
      "bufferView": 1,
      "byteOffset": 63384,
      "componentType": 5126,
      "count": 120,
      "max": [
        0.93338507413864136,
        0.3404393196105957
      ],
      "min": [
        0.69187694787979126,
        0.24546647071838379
      ],
      "type": "VEC2"
    },
    {
      "bufferView": 0,
      "byteOffset": 50208,
      "componentType": 5125,
      "count": 168,
      "max": [
        119
      ],
      "min": [
        0
      ],
      "type": "SCALAR"
    },
    {
      "bufferView": 2,
      "byteOffset": 193032,
      "componentType": 5126,
      "count": 12,
      "max": [
        -90.563232421875,
        9.9076576232910156,
        105.77773284912109
      ],
      "min": [
        -260.85107421875,
        -9.8470840454101562,
        78.129020690917969
      ],
      "type": "VEC3"
    },
    {
      "bufferView": 2,
      "byteOffset": 193176,
      "componentType": 5126,
      "count": 12,
      "max": [
        0,
        1,
        2.0695526359304495e-07
      ],
      "min": [
        0,
        -1,
        -4.1391052718608989e-07
      ],
      "type": "VEC3"
    },
    {
      "bufferView": 1,
      "byteOffset": 64344,
      "componentType": 5126,
      "count": 12,
      "max": [
        0.99799996614456177,
        0.5776248574256897
      ],
      "min": [
        0.0020000000949949026,
        0.41570901870727539
      ],
      "type": "VEC2"
    },
    {
      "bufferView": 0,
      "byteOffset": 50880,
      "componentType": 5125,
      "count": 12,
      "max": [
        11
      ],
      "min": [
        0
      ],
      "type": "SCALAR"
    },
    {
      "bufferView": 2,
      "byteOffset": 193320,
      "componentType": 5126,
      "count": 4,
      "max": [
        -11.790817260742188,
        -10.840219497680664,
        105.77413177490234
      ],
      "min": [
        -88.594741821289062,
        -10.840221405029297,
        78.125419616699219
      ],
      "type": "VEC3"
    },
    {
      "bufferView": 2,
      "byteOffset": 193368,
      "componentType": 5126,
      "count": 4,
      "max": [
        0,
        -1,
        6.8985080758920958e-08
      ],
      "min": [
        0,
        -1,
        6.8985080758920958e-08
      ],
      "type": "VEC3"
    },
    {
      "bufferView": 1,
      "byteOffset": 64440,
      "componentType": 5126,
      "count": 4,
      "max": [
        0.99799996614456177,
        0.67051482200622559
      ],
      "min": [
        0.0020000000949949026,
        0.31196394562721252
      ],
      "type": "VEC2"
    },
    {
      "bufferView": 0,
      "byteOffset": 50928,
      "componentType": 5125,
      "count": 6,
      "max": [
        3
      ],
      "min": [
        0
      ],
      "type": "SCALAR"
    },
    {
      "bufferView": 2,
      "byteOffset": 193416,
      "componentType": 5126,
      "count": 4,
      "max": [
        -262.819580078125,
        -10.840219497680664,
        105.77413177490234
      ],
      "min": [
        -339.62350463867188,
        -10.840221405029297,
        78.125419616699219
      ],
      "type": "VEC3"
    },
    {
      "bufferView": 2,
      "byteOffset": 193464,
      "componentType": 5126,
      "count": 4,
      "max": [
        0,
        -1,
        6.8985080758920958e-08
      ],
      "min": [
        0,
        -1,
        6.8985080758920958e-08
      ],
      "type": "VEC3"
    },
    {
      "bufferView": 1,
      "byteOffset": 64472,
      "componentType": 5126,
      "count": 4,
      "max": [
        0.99799996614456177,
        0.67051482200622559
      ],
      "min": [
        0.0020000000949949026,
        0.31196394562721252
      ],
      "type": "VEC2"
    },
    {
      "bufferView": 0,
      "byteOffset": 50952,
      "componentType": 5125,
      "count": 6,
      "max": [
        3
      ],
      "min": [
        0
      ],
      "type": "SCALAR"
    }
  ],
  "asset": {
    "extras": {
      "author": "Anthony Yanez (https://sketchfab.com/paulyanez)",
      "license": "CC-BY-4.0 (http://creativecommons.org/licenses/by/4.0/)",
      "source": "https://sketchfab.com/3d-models/starting-line-ecb35b3e5b424f9dbf54174e6c5907de",
      "title": "Starting Line"
    },
    "generator": "Sketchfab-7.75.0",
    "version": "2.0"
  },
  "bufferViews": [
    {
      "buffer": 0,
      "byteLength": 50976,
      "byteOffset": 0,
      "name": "floatBufferViews",
      "target": 34963
    },
    {
      "buffer": 0,
      "byteLength": 64504,
      "byteOffset": 50976,
      "byteStride": 8,
      "name": "floatBufferViews",
      "target": 34962
    },
    {
      "buffer": 0,
      "byteLength": 193512,
      "byteOffset": 115480,
      "byteStride": 12,
      "name": "floatBufferViews",
      "target": 34962
    }
  ],
  "buffers": [
    {
      "byteLength": 308992,
      "uri": "scene.bin"
    }
  ],
  "images": [
    {
      "uri": "textures/Start_Texture_baseColor.png"
    },
    {
      "uri": "textures/Ad_2_baseColor.png"
    },
    {
      "uri": "textures/Ad_1_baseColor.png"
    }
  ],
  "materials": [
    {
      "doubleSided": true,
      "emissiveFactor": [
        0,
        0,
        0
      ],
      "name": "Starting_Sign_Mat_1",
      "pbrMetallicRoughness": {
        "baseColorFactor": [
          0,
          0,
          0.258824,
          1
        ],
        "metallicFactor": 1,
        "roughnessFactor": 0.33999999999999997
      }
    },
    {
      "doubleSided": true,
      "emissiveFactor": [
        0,
        0,
        0
      ],
      "name": "Starting_Sign_Mat_2",
      "pbrMetallicRoughness": {
        "baseColorFactor": [
          0.32156899999999999,
          0,
          0,
          1
        ],
        "metallicFactor": 1,
        "roughnessFactor": 0.33999999999999997
      }
    },
    {
      "doubleSided": true,
      "emissiveFactor": [
        0,
        0,
        0
      ],
      "name": "Starting_Sign_Mat_3",
      "pbrMetallicRoughness": {
        "baseColorFactor": [
          0.047058799999999998,
          0.047058799999999998,
          0.047058799999999998,
          1
        ],
        "metallicFactor": 1,
        "roughnessFactor": 0.33999999999999997
      }
    },
    {
      "doubleSided": true,
      "emissiveFactor": [
        0,
        0,
        0
      ],
      "name": "Start_Texture",
      "pbrMetallicRoughness": {
        "baseColorFactor": [
          1,
          1,
          1,
          1
        ],
        "baseColorTexture": {
          "index": 0,
          "texCoord": 0
        },
        "metallicFactor": 1,
        "roughnessFactor": 0.89297135959999996
      }
    },
    {
      "doubleSided": true,
      "emissiveFactor": [
        0,
        0,
        0
      ],
      "name": "Ad_2",
      "pbrMetallicRoughness": {
        "baseColorFactor": [
          1,
          1,
          1,
          1
        ],
        "baseColorTexture": {
          "index": 1,
          "texCoord": 0
        },
        "metallicFactor": 1,
        "roughnessFactor": 0.89297135959999996
      }
    },
    {
      "doubleSided": true,
      "emissiveFactor": [
        0,
        0,
        0
      ],
      "name": "Ad_1",
      "pbrMetallicRoughness": {
        "baseColorFactor": [
          1,
          1,
          1,
          1
        ],
        "baseColorTexture": {
          "index": 2,
          "texCoord": 0
        },
        "metallicFactor": 1,
        "roughnessFactor": 0.89297135959999996
      }
    }
  ],
  "meshes": [
    {
      "name": "Starting Line_Starting Sign Mat 1_0",
      "primitives": [
        {
          "attributes": {
            "NORMAL": 1,
            "POSITION": 0,
            "TEXCOORD_0": 2
          },
          "indices": 3,
          "material": 0,
          "mode": 4
        }
      ]
    },
    {
      "name": "Starting Line_Starting Sign Mat 2_0",
      "primitives": [
        {
          "attributes": {
            "NORMAL": 5,
            "POSITION": 4,
            "TEXCOORD_0": 6
          },
          "indices": 7,
          "material": 1,
          "mode": 4
        }
      ]
    },
    {
      "name": "Starting Line_Starting Sign Mat 3_0",
      "primitives": [
        {
          "attributes": {
            "NORMAL": 9,
            "POSITION": 8,
            "TEXCOORD_0": 10
          },
          "indices": 11,
          "material": 2,
          "mode": 4
        }
      ]
    },
    {
      "name": "Starting Line_Start Texture_0",
      "primitives": [
        {
          "attributes": {
            "NORMAL": 13,
            "POSITION": 12,
            "TEXCOORD_0": 14
          },
          "indices": 15,
          "material": 3,
          "mode": 4
        }
      ]
    },
    {
      "name": "Starting Line_Ad 2_0",
      "primitives": [
        {
          "attributes": {
            "NORMAL": 17,
            "POSITION": 16,
            "TEXCOORD_0": 18
          },
          "indices": 19,
          "material": 4,
          "mode": 4
        }
      ]
    },
    {
      "name": "Starting Line_Ad 1_0",
      "primitives": [
        {
          "attributes": {
            "NORMAL": 21,
            "POSITION": 20,
            "TEXCOORD_0": 22
          },
          "indices": 23,
          "material": 5,
          "mode": 4
        }
      ]
    }
  ],
  "nodes": [
    {
      "children": [
        1
      ],
      "name": "RootNode (gltf orientation matrix)",
      "rotation": [
        -0.70710678118654746,
        -0,
        -0,
        0.70710678118654757
      ]
    },
    {
      "children": [
        2
      ],
      "name": "RootNode (model correction matrix)"
    },
    {
      "children": [
        3
      ],
      "matrix": [
        1,
        0,
        0,
        0,
        0,
        0,
        1,
        0,
        0,
        -1,
        0,
        0,
        0,
        0,
        0,
        1
      ],
      "name": "starting_line.FBX"
    },
    {
      "children": [
        4
      ],
      "name": "RootNode"
    },
    {
      "children": [
        5
      ],
      "matrix": [
        1,
        0,
        0,
        0,
        0,
        3.8941436730777212e-07,
        -0.99999999999992428,
        0,
        0,
        0.99999999999992428,
        3.8941436730777212e-07,
        0,
        0,
        0,
        0,
        1
      ],
      "name": "Starting Line"
    },
    {
      "children": [
        6,
        7,
        8,
        9,
        10,
        11
      ],
      "matrix": [
        1,
        0,
        -0,
        0,
        0,
        1,
        0,
        0,
        0,
        0,
        1,
        0,
        175.70710754394531,
        0.95842123031616211,
        -28.018226623535156,
        1
      ],
      "name": ""
    },
    {
      "mesh": 0,
      "name": "Starting Line_Starting Sign Mat 1_0"
    },
    {
      "mesh": 1,
      "name": "Starting Line_Starting Sign Mat 2_0"
    },
    {
      "mesh": 2,
      "name": "Starting Line_Starting Sign Mat 3_0"
    },
    {
      "mesh": 3,
      "name": "Starting Line_Start Texture_0"
    },
    {
      "mesh": 4,
      "name": "Starting Line_Ad 2_0"
    },
    {
      "mesh": 5,
      "name": "Starting Line_Ad 1_0"
    }
  ],
  "samplers": [
    {
      "magFilter": 9729,
      "minFilter": 9987,
      "wrapS": 10497,
      "wrapT": 10497
    }
  ],
  "scene": 0,
  "scenes": [
    {
      "name": "OSG_Scene",
      "nodes": [
        0
      ]
    }
  ],
  "textures": [
    {
      "sampler": 0,
      "source": 0
    },
    {
      "sampler": 0,
      "source": 1
    },
    {
      "sampler": 0,
      "source": 2
    }
  ]
}

