{
  "accessors": [
    {
      "bufferView": 1,
      "componentType": 5126,
      "count": 32059,
      "max": [
        -21.285379409790039,
        44.9871826171875,
        69.408523559570312
      ],
      "min": [
        -47.719707489013672,
        -0.73512637615203857,
        -52.588829040527344
      ],
      "type": "VEC3"
    },
    {
      "bufferView": 1,
      "byteOffset": 384708,
      "componentType": 5126,
      "count": 32059,
      "max": [
        0.99998819828033447,
        0.99996227025985718,
        0.99998641014099121
      ],
      "min": [
        -0.99982690811157227,
        -0.99998575448989868,
        -0.99968582391738892
      ],
      "type": "VEC3"
    },
    {
      "bufferView": 2,
      "componentType": 5126,
      "count": 32059,
      "max": [
        0.81568628549575806,
        0.73725491762161255,
        0.75294119119644165,
        1
      ],
      "min": [
        0.41960784792900085,
        0.35294118523597717,
        0.39215686917304993,
        1
      ],
      "type": "VEC4"
    },
    {
      "bufferView": 0,
      "componentType": 5125,
      "count": 192306,
      "max": [
        32058
      ],
      "min": [
        0
      ],
      "type": "SCALAR"
    },
    {
      "bufferView": 1,
      "byteOffset": 769416,
      "componentType": 5126,
      "count": 65532,
      "max": [
        61.749710083007812,
        76.457649230957031,
        110.31340789794922
      ],
      "min": [
        -69.95947265625,
        -3.010329008102417,
        -108.57452392578125
      ],
      "type": "VEC3"
    },
    {
      "bufferView": 1,
      "byteOffset": 1555800,
      "componentType": 5126,
      "count": 65532,
      "max": [
        0.99999690055847168,
        0.99992108345031738,
        0.99999380111694336
      ],
      "min": [
        -0.99998915195465088,
        -0.99998003244400024,
        -0.99999982118606567
      ],
      "type": "VEC3"
    },
    {
      "bufferView": 2,
      "byteOffset": 512944,
      "componentType": 5126,
      "count": 65532,
      "max": [
        0.81960785388946533,
        0.50980395078659058,
        0.24705882370471954,
        1
      ],
      "min": [
        0.32941177487373352,
        0.18039216101169586,
        0.098039217293262482,
        1
      ],
      "type": "VEC4"
    },
    {
      "bufferView": 0,
      "byteOffset": 769224,
      "componentType": 5125,
      "count": 387561,
      "max": [
        65531
      ],
      "min": [
        0
      ],
      "type": "SCALAR"
    },
    {
      "bufferView": 1,
      "byteOffset": 2342184,
      "componentType": 5126,
      "count": 65532,
      "max": [
        65.316497802734375,
        52.764377593994141,
        110.30579376220703
      ],
      "min": [
        40.715663909912109,
        0.52368700504302979,
        -99.271469116210938
      ],
      "type": "VEC3"
    },
    {
      "bufferView": 1,
      "byteOffset": 3128568,
      "componentType": 5126,
      "count": 65532,
      "max": [
        0.99999994039535522,
        0.99999797344207764,
        0.9999927282333374
      ],
      "min": [
        -0.99999898672103882,
        -0.99999982118606567,
        -0.99999946355819702
      ],
      "type": "VEC3"
    },
    {
      "bufferView": 2,
      "byteOffset": 1561456,
      "componentType": 5126,
      "count": 65532,
      "max": [
        0.81176471710205078,
        0.5058823823928833,
        0.24313725531101227,
        1
      ],
      "min": [
        0.31764706969261169,
        0.17647059261798859,
        0.098039217293262482,
        1
      ],
      "type": "VEC4"
    },
    {
      "bufferView": 0,
      "byteOffset": 2319468,
      "componentType": 5125,
      "count": 382518,
      "max": [
        65531
      ],
      "min": [
        0
      ],
      "type": "SCALAR"
    },
    {
      "bufferView": 1,
      "byteOffset": 3914952,
      "componentType": 5126,
      "count": 65532,
      "max": [
        57.916851043701172,
        75.396575927734375,
        112.51163482666016
      ],
      "min": [
        6.714179515838623,
        -8.0012617111206055,
        -102.27198791503906
      ],
      "type": "VEC3"
    },
    {
      "bufferView": 1,
      "byteOffset": 4701336,
      "componentType": 5126,
      "count": 65532,
      "max": [
        0.99999982118606567,
        0.99998605251312256,
        0.99997758865356445
      ],
      "min": [
        -1,
        -0.99997663497924805,
        -0.99999654293060303
      ],
      "type": "VEC3"
    },
    {
      "bufferView": 2,
      "byteOffset": 2609968,
      "componentType": 5126,
      "count": 65532,
      "max": [
        0.81960785388946533,
        0.5058823823928833,
        0.24313725531101227,
        1
      ],
      "min": [
        0.32549020648002625,
        0.18039216101169586,
        0.098039217293262482,
        1
      ],
      "type": "VEC4"
    },
    {
      "bufferView": 0,
      "byteOffset": 3849540,
      "componentType": 5125,
      "count": 382332,
      "max": [
        65531
      ],
      "min": [
        0
      ],
      "type": "SCALAR"
    },
    {
      "bufferView": 1,
      "byteOffset": 5487720,
      "componentType": 5126,
      "count": 65532,
      "max": [
        53.694911956787109,
        68.450492858886719,
        112.49849700927734
      ],
      "min": [
        -35.461334228515625,
        -3.1143925189971924,
        -46.517002105712891
      ],
      "type": "VEC3"
    },
    {
      "bufferView": 1,
      "byteOffset": 6274104,
      "componentType": 5126,
      "count": 65532,
      "max": [
        0.99999582767486572,
        0.99999713897705078,
        0.99999803304672241
      ],
      "min": [
        -0.99999755620956421,
        -0.99999862909317017,
        -0.99999070167541504
      ],
      "type": "VEC3"
    },
    {
      "bufferView": 2,
      "byteOffset": 3658480,
      "componentType": 5126,
      "count": 65532,
      "max": [
        0.83529412746429443,
        0.56078433990478516,
        0.40000000596046448,
        1
      ],
      "min": [
        0.32549020648002625,
        0.17647059261798859,
        0.10196078568696976,
        1
      ],
      "type": "VEC4"
    },
    {
      "bufferView": 0,
      "byteOffset": 5378868,
      "componentType": 5125,
      "count": 380034,
      "max": [
        65531
      ],
      "min": [
        0
      ],
      "type": "SCALAR"
    },
    {
      "bufferView": 1,
      "byteOffset": 7060488,
      "componentType": 5126,
      "count": 65532,
      "max": [
        67.230705261230469,
        79.566787719726562,
        62.773933410644531
      ],
      "min": [
        -35.021705627441406,
        -0.37901720404624939,
        -119.09590911865234
      ],
      "type": "VEC3"
    },
    {
      "bufferView": 1,
      "byteOffset": 7846872,
      "componentType": 5126,
      "count": 65532,
      "max": [
        0.99999982118606567,
        0.99999517202377319,
        0.99999892711639404
      ],
      "min": [
        -0.99999755620956421,
        -0.99996697902679443,
        -0.99999785423278809
      ],
      "type": "VEC3"
    },
    {
      "bufferView": 2,
      "byteOffset": 4706992,
      "componentType": 5126,
      "count": 65532,
      "max": [
        0.86274510622024536,
        0.54901963472366333,
        0.36078432202339172,
        1
      ],
      "min": [
        0.32549020648002625,
        0.18039216101169586,
        0.10196078568696976,
        1
      ],
      "type": "VEC4"
    },
    {
      "bufferView": 0,
      "byteOffset": 6899004,
      "componentType": 5125,
      "count": 384429,
      "max": [
        65531
      ],
      "min": [
        0
      ],
      "type": "SCALAR"
    },
    {
      "bufferView": 1,
      "byteOffset": 8633256,
      "componentType": 5126,
      "count": 65532,
      "max": [
        55.542190551757812,
        65.226707458496094,
        97.690956115722656
      ],
      "min": [
        -36.571582794189453,
        -3.6565611362457275,
        -107.25574493408203
      ],
      "type": "VEC3"
    },
    {
      "bufferView": 1,
      "byteOffset": 9419640,
      "componentType": 5126,
      "count": 65532,
      "max": [
        0.99997776746749878,
        0.9999963641166687,
        0.99999308586120605
      ],
      "min": [
        -0.9999961256980896,
        -0.99999380111694336,
        -1
      ],
      "type": "VEC3"
    },
    {
      "bufferView": 2,
      "byteOffset": 5755504,
      "componentType": 5126,
      "count": 65532,
      "max": [
        0.86666667461395264,
        0.56078433990478516,
        0.36078432202339172,
        1
      ],
      "min": [
        0.32549020648002625,
        0.17647059261798859,
        0.098039217293262482,
        1
      ],
      "type": "VEC4"
    },
    {
      "bufferView": 0,
      "byteOffset": 8436720,
      "componentType": 5125,
      "count": 387204,
      "max": [
        65531
      ],
      "min": [
        0
      ],
      "type": "SCALAR"
    },
    {
      "bufferView": 1,
      "byteOffset": 10206024,
      "componentType": 5126,
      "count": 65532,
      "max": [
        53.818531036376953,
        86.47332763671875,
        116.00773620605469
      ],
      "min": [
        -38.083824157714844,
        22.133266448974609,
        -124.23819732666016
      ],
      "type": "VEC3"
    },
    {
      "bufferView": 1,
      "byteOffset": 10992408,
      "componentType": 5126,
      "count": 65532,
      "max": [
        0.99999868869781494,
        0.99999290704727173,
        0.99999570846557617
      ],
      "min": [
        -0.99999386072158813,
        -0.99999481439590454,
        -0.99999254941940308
      ],
      "type": "VEC3"
    },
    {
      "bufferView": 2,
      "byteOffset": 6804016,
      "componentType": 5126,
      "count": 65532,
      "max": [
        0.86274510622024536,
        0.56078433990478516,
        0.38431373238563538,
        1
      ],
      "min": [
        0.32549020648002625,
        0.17647059261798859,
        0.10196078568696976,
        1
      ],
      "type": "VEC4"
    },
    {
      "bufferView": 0,
      "byteOffset": 9985536,
      "componentType": 5125,
      "count": 384684,
      "max": [
        65531
      ],
      "min": [
        0
      ],
      "type": "SCALAR"
    },
    {
      "bufferView": 1,
      "byteOffset": 11778792,
      "componentType": 5126,
      "count": 21346,
      "max": [
        16.706121444702148,
        97.082305908203125,
        115.97293090820312
      ],
      "min": [
        -28.355857849121094,
        46.659389495849609,
        55.867637634277344
      ],
      "type": "VEC3"
    },
    {
      "bufferView": 1,
      "byteOffset": 12034944,
      "componentType": 5126,
      "count": 21346,
      "max": [
        0.99995458126068115,
        0.99987375736236572,
        0.99999570846557617
      ],
      "min": [
        -0.99989193677902222,
        -0.99994570016860962,
        -0.99994403123855591
      ],
      "type": "VEC3"
    },
    {
      "bufferView": 2,
      "byteOffset": 7852528,
      "componentType": 5126,
      "count": 21346,
      "max": [
        0.83529412746429443,
        0.54901963472366333,
        0.38431373238563538,
        1
      ],
      "min": [
        0.32549020648002625,
        0.19215686619281769,
        0.10196078568696976,
        1
      ],
      "type": "VEC4"
    },
    {
      "bufferView": 0,
      "byteOffset": 11524272,
      "componentType": 5125,
      "count": 117360,
      "max": [
        21345
      ],
      "min": [
        0
      ],
      "type": "SCALAR"
    }
  ],
  "asset": {
    "extras": {
      "author": "YannisTH (https://sketchfab.com/YannisTH)",
      "license": "CC-BY-4.0 (http://creativecommons.org/licenses/by/4.0/)",
      "source": "https://sketchfab.com/3d-models/stylized-log-1480ceebddd84b03a1a7585790452e03",
      "title": "Stylized Log"
    },
    "generator": "Sketchfab-7.39.0",
    "version": "2.0"
  },
  "bufferViews": [
    {
      "buffer": 0,
      "byteLength": 11993712,
      "byteOffset": 0,
      "name": "floatBufferViews",
      "target": 34963
    },
    {
      "buffer": 0,
      "byteLength": 12291096,
      "byteOffset": 11993712,
      "byteStride": 12,
      "name": "floatBufferViews",
      "target": 34962
    },
    {
      "buffer": 0,
      "byteLength": 8194064,
      "byteOffset": 24284808,
      "byteStride": 16,
      "name": "floatBufferViews",
      "target": 34962
    }
  ],
  "buffers": [
    {
      "byteLength": 32478872,
      "uri": "scene.bin"
    }
  ],
  "materials": [
    {
      "doubleSided": true,
      "emissiveFactor": [
        0,
        0,
        0
      ],
      "name": "Shrooms",
      "pbrMetallicRoughness": {
        "baseColorFactor": [
          0.5,
          0.5,
          0.5,
          1
        ],
        "metallicFactor": 0,
        "roughnessFactor": 0.6019435975609756
      }
    },
    {
      "doubleSided": true,
      "emissiveFactor": [
        0,
        0,
        0
      ],
      "name": "Wood",
      "pbrMetallicRoughness": {
        "baseColorFactor": [
          0.5,
          0.5,
          0.5,
          1
        ],
        "metallicFactor": 0,
        "roughnessFactor": 0.71779725609756095
      }
    }
  ],
  "meshes": [
    {
      "name": "Shrooms_Shrooms_0",
      "primitives": [
        {
          "attributes": {
            "COLOR_0": 2,
            "NORMAL": 1,
            "POSITION": 0
          },
          "indices": 3,
          "material": 0,
          "mode": 4
        }
      ]
    },
    {
      "name": "Wood_Wood_0",
      "primitives": [
        {
          "attributes": {
            "COLOR_0": 6,
            "NORMAL": 5,
            "POSITION": 4
          },
          "indices": 7,
          "material": 1,
          "mode": 4
        }
      ]
    },
    {
      "name": "Wood_Wood_0",
      "primitives": [
        {
          "attributes": {
            "COLOR_0": 10,
            "NORMAL": 9,
            "POSITION": 8
          },
          "indices": 11,
          "material": 1,
          "mode": 4
        }
      ]
    },
    {
      "name": "Wood_Wood_0",
      "primitives": [
        {
          "attributes": {
            "COLOR_0": 14,
            "NORMAL": 13,
            "POSITION": 12
          },
          "indices": 15,
          "material": 1,
          "mode": 4
        }
      ]
    },
    {
      "name": "Wood_Wood_0",
      "primitives": [
        {
          "attributes": {
            "COLOR_0": 18,
            "NORMAL": 17,
            "POSITION": 16
          },
          "indices": 19,
          "material": 1,
          "mode": 4
        }
      ]
    },
    {
      "name": "Wood_Wood_0",
      "primitives": [
        {
          "attributes": {
            "COLOR_0": 22,
            "NORMAL": 21,
            "POSITION": 20
          },
          "indices": 23,
          "material": 1,
          "mode": 4
        }
      ]
    },
    {
      "name": "Wood_Wood_0",
      "primitives": [
        {
          "attributes": {
            "COLOR_0": 26,
            "NORMAL": 25,
            "POSITION": 24
          },
          "indices": 27,
          "material": 1,
          "mode": 4
        }
      ]
    },
    {
      "name": "Wood_Wood_0",
      "primitives": [
        {
          "attributes": {
            "COLOR_0": 30,
            "NORMAL": 29,
            "POSITION": 28
          },
          "indices": 31,
          "material": 1,
          "mode": 4
        }
      ]
    },
    {
      "name": "Wood_Wood_0",
      "primitives": [
        {
          "attributes": {
            "COLOR_0": 34,
            "NORMAL": 33,
            "POSITION": 32
          },
          "indices": 35,
          "material": 1,
          "mode": 4
        }
      ]
    }
  ],
  "nodes": [
    {
      "children": [
        1
      ],
      "name": "RootNode (gltf orientation matrix)",
      "rotation": [
        -0.70710678118654746,
        -0,
        -0,
        0.70710678118654757
      ]
    },
    {
      "children": [
        2
      ],
      "name": "RootNode (model correction matrix)"
    },
    {
      "children": [
        3
      ],
      "matrix": [
        1,
        0,
        0,
        0,
        0,
        0,
        1,
        0,
        0,
        -1,
        0,
        0,
        0,
        0,
        0,
        1
      ],
      "name": "264c41dfde67412abd4b7607c5c2705a.fbx"
    },
    {
      "children": [
        4,
        6
      ],
      "name": "RootNode"
    },
    {
      "children": [
        5
      ],
      "name": "Shrooms"
    },
    {
      "mesh": 0,
      "name": "Shrooms_Shrooms_0"
    },
    {
      "children": [
        7,
        8,
        9,
        10,
        11,
        12,
        13,
        14
      ],
      "name": "Wood"
    },
    {
      "mesh": 1,
      "name": "Wood_Wood_0"
    },
    {
      "mesh": 2,
      "name": "Wood_Wood_0"
    },
    {
      "mesh": 3,
      "name": "Wood_Wood_0"
    },
    {
      "mesh": 4,
      "name": "Wood_Wood_0"
    },
    {
      "mesh": 5,
      "name": "Wood_Wood_0"
    },
    {
      "mesh": 6,
      "name": "Wood_Wood_0"
    },
    {
      "mesh": 7,
      "name": "Wood_Wood_0"
    },
    {
      "mesh": 8,
      "name": "Wood_Wood_0"
    }
  ],
  "scene": 0,
  "scenes": [
    {
      "name": "OSG_Scene",
      "nodes": [
        0
      ]
    }
  ]
}

